<?xml version="1.0" encoding="iso-8859-1"?>
<!-- Generator: Adobe Illustrator 19.0.0, SVG Export Plug-In . SVG Version: 6.00 Build 0)  -->
<svg version="1.1" id="Layer_1" xmlns="http://www.w3.org/2000/svg" xmlns:xlink="http://www.w3.org/1999/xlink" x="0px" y="0px"
	 viewBox="0 0 512 512" style="enable-background:new 0 0 512 512;" xml:space="preserve">
<g>
	<path style="fill:#EEC97B;" d="M164.588,256.6c4.704-4.208,9.904-7.616,15.424-10.216c-2.616-7.2-4.008-14.696-4.008-22.384
		c0-39.696,35.888-72,80-72s80,32.304,80,72c0,7.688-1.392,15.176-4.008,22.384c5.52,2.6,10.72,6.008,15.424,10.216
		c38.08-21.936,60.584-56.072,60.584-92.6c0-63.96-68.184-116-152-116s-152,52.04-152,116
		C104.004,200.536,126.5,234.664,164.588,256.6z M304.004,136c4.416,0,8,3.584,8,8s-3.584,8-8,8c-4.416,0-8-3.584-8-8
		S299.58,136,304.004,136z M208.004,136c4.416,0,8,3.584,8,8s-3.584,8-8,8s-8-3.584-8-8S203.58,136,208.004,136z"/>
	<path style="fill:#EEC97B;" d="M180.004,368c11.032,0,20-8.976,20-20s-8.968-20-20-20h-52v-16h16.984
		c-2.52-14.944,0.76-30.272,9.088-43.048c-9.264-5.552-17.656-11.784-25.144-18.576l-35.672,35.68
		c-13.992,13.992-17.976,34.032-10.408,52.312C90.42,356.648,107.412,368,127.196,368H180.004z"/>
	<path style="fill:#EEC97B;" d="M328.004,416c-22.056,0-40,17.944-40,40c0,22.008,17.872,39.912,39.864,39.984
		c0.2,0,0.4-0.032,0.608-0.032c21.832-0.256,39.536-18.056,39.536-39.952C368.004,433.944,350.052,416,328.004,416z"/>
	<path style="fill:#EEC97B;" d="M393.252,383.392c-2.776,0.352-5.576,0.608-8.448,0.608h-52.808c-6.456,0-12.432-1.848-17.68-4.832
		l-52.784,50.608c-1.536,1.48-3.536,2.224-5.528,2.224c-1.992,0-3.992-0.744-5.536-2.224l-52.784-50.608
		c-5.248,2.984-11.224,4.832-17.68,4.832h-52.808c-2.872,0-5.672-0.256-8.448-0.608l-5.128,27.344
		c-3.96,21.12,1.64,42.712,15.36,59.248c0.376,0.448,0.8,0.84,1.184,1.28c-1.376-4.864-2.16-9.968-2.16-15.264
		c0-30.872,25.128-56,56-56s56,25.128,56,56c0,15.664-6.48,29.824-16.888,40h65.768c-10.4-10.176-16.888-24.336-16.888-40
		c0-30.872,25.128-56,56-56s56,25.128,56,56c0,5.296-0.784,10.4-2.168,15.264c0.384-0.44,0.808-0.824,1.184-1.28
		c13.72-16.536,19.32-38.136,15.36-59.248L393.252,383.392z"/>
	<path style="fill:#EEC97B;" d="M184.004,416c-22.056,0-40,17.944-40,40c0,21.896,17.696,39.696,39.528,39.952
		c0.2,0,0.4,0.032,0.608,0.032c21.992-0.08,39.864-17.976,39.864-39.984C224.004,433.944,206.052,416,184.004,416z"/>
</g>
<path style="fill:#E87B5A;" d="M332.004,312h18.76c3.528-15.128-1.168-31.296-12.776-42.424c-18.872-18.096-49.616-18.096-68.496,0
	l-7.952,7.632c-3.096,2.968-7.984,2.968-11.08,0l-7.952-7.632c-18.88-18.104-49.624-18.096-68.488,0
	c-11.616,11.136-16.312,27.296-12.776,42.424h18.76c19.848,0,36,16.152,36,36c0,7.584-2.384,14.608-6.408,20.416l46.408,44.496
	l46.408-44.496c-4.024-5.808-6.408-12.832-6.408-20.424C296.004,328.152,312.148,312,332.004,312z M232.004,312h-16v-16h16V312z
	 M264.004,312h-16v-16h16V312z M296.004,312h-16v-16h16V312z"/>
<g>
	<path style="fill:#EEC97B;" d="M341.436,50.544c12.672,5.912,24.32,13.024,34.568,21.256C375.892,58.656,365.188,48,352.02,48
		C348.3,48,344.7,48.928,341.436,50.544z"/>
	<path style="fill:#EEC97B;" d="M383.068,250.384c-7.488,6.792-15.872,13.024-25.144,18.576
		c8.328,12.768,11.608,28.096,9.088,43.048h16.984v16h-52c-11.032,0-20,8.976-20,20s8.968,20,20,20h52.808
		c19.784,0,36.776-11.352,44.344-29.632c7.568-18.28,3.584-38.32-10.408-52.312L383.068,250.384z"/>
	<path style="fill:#EEC97B;" d="M352.02,32c22.056,0,40,17.944,40,40c0,4.312-0.776,8.552-2.128,12.608
		c4.184,4.344,8.056,8.88,11.544,13.616c4.28-8.016,6.584-16.912,6.584-26.224c0-30.88-25.128-56-56-56
		c-17.72,0-34.248,8.4-44.744,22.344c5.752,1.456,11.344,3.184,16.808,5.096C331.532,36.16,341.54,32,352.02,32z"/>
	<path style="fill:#EEC97B;" d="M136.02,71.776c10.248-8.224,21.888-15.328,34.552-21.24C167.308,48.928,163.716,48,160.004,48
		C146.844,48,136.148,58.648,136.02,71.776z"/>
	<path style="fill:#EEC97B;" d="M122.116,84.592c-1.344-4.048-2.112-8.288-2.112-12.592c0-22.056,17.944-40,40-40
		c10.472,0,20.48,4.16,27.928,11.432c5.464-1.912,11.056-3.64,16.808-5.096C194.244,24.4,177.724,16,160.004,16
		c-30.872,0-56,25.12-56,56c0,9.32,2.288,18.2,6.568,26.216C114.052,93.472,117.932,88.944,122.116,84.592z"/>
</g>
<path style="fill:#FFFFFF;" d="M253.588,258.024l2.416,2.32l2.416-2.32c15.832-15.168,37.936-20.704,58.376-16.656
	c2.096-5.592,3.208-11.408,3.208-17.368c0-30.88-28.712-56-64-56s-64,25.12-64,56c0,5.968,1.12,11.784,3.216,17.368
	C215.652,237.328,237.756,242.848,253.588,258.024z M256.004,184c8.84,0,16,3.584,16,8s-7.16,8-16,8c-8.84,0-16-3.584-16-8
	S247.164,184,256.004,184z"/>
<g>
	<path style="fill:#3C4A53;" d="M430.052,274.744L394.308,239c19.056-21.696,29.688-47.688,29.688-75c0-18-4.64-35.16-12.984-50.816
		C419.404,101.16,424.02,86.72,424.02,72c0-39.696-32.296-72-72-72c-25.24,0-48.496,13.328-61.52,34.824
		C279.356,32.992,267.828,32,256.004,32c-11.816,0-23.344,0.984-34.48,2.824C208.492,13.328,185.244,0,160.004,0
		c-39.704,0-72,32.304-72,72c0,14.72,4.608,29.152,12.984,41.176C92.644,128.832,88.004,145.992,88.004,164
		c0,27.312,10.624,53.304,29.688,75l-35.744,35.744c-18.656,18.648-23.968,45.376-13.872,69.744
		c6.84,16.52,19.536,28.648,35.168,34.84l-5.336,28.448c-4.848,25.816,2,52.208,18.768,72.416
		c15.36,18.504,37.368,29.672,61.136,31.44c2.032,0.232,4.096,0.368,6.192,0.368c0.072,0,0.136-0.008,0.2-0.008
		s0.128,0.008,0.184,0.008h143.216c0.064,0,0.12-0.008,0.184-0.008c0.072,0,0.136,0.008,0.208,0.008c2.096,0,4.16-0.136,6.192-0.36
		c23.768-1.768,45.776-12.936,61.136-31.44c16.768-20.2,23.608-46.6,18.768-72.416l-5.336-28.448
		c15.632-6.192,28.328-18.32,35.168-34.84C454.02,320.12,448.708,293.392,430.052,274.744z M352.02,16c30.872,0,56,25.12,56,56
		c0,9.32-2.296,18.208-6.584,26.224c-3.488-4.744-7.36-9.272-11.544-13.616c1.352-4.056,2.128-8.296,2.128-12.608
		c0-22.056-17.944-40-40-40c-10.488,0-20.488,4.16-27.936,11.432c-5.464-1.912-11.056-3.64-16.808-5.096
		C317.78,24.4,334.3,16,352.02,16z M376.004,71.8c-10.248-8.232-21.896-15.344-34.568-21.256C344.7,48.928,348.3,48,352.02,48
		C365.188,48,375.892,58.656,376.004,71.8z M160.004,16c17.72,0,34.24,8.4,44.736,22.336c-5.752,1.456-11.344,3.184-16.808,5.096
		C180.476,36.16,170.476,32,160.004,32c-22.056,0-40,17.944-40,40c0,4.304,0.776,8.544,2.12,12.592
		c-4.192,4.352-8.064,8.88-11.552,13.624c-4.28-8.016-6.568-16.896-6.568-26.216C104.004,41.12,129.124,16,160.004,16z
		 M170.58,50.544c-12.664,5.912-24.312,13.008-34.552,21.24C136.148,58.648,146.844,48,160.004,48
		C163.716,48,167.308,48.928,170.58,50.544z M104.004,164c0-63.96,68.184-116,152-116s152,52.04,152,116
		c0,36.528-22.504,70.664-60.584,92.6c-4.712-4.208-9.904-7.624-15.424-10.216c2.616-7.2,4.008-14.696,4.008-22.384
		c0-39.696-35.888-72-80-72s-80,32.304-80,72c0,7.688,1.392,15.184,4.008,22.384c-5.52,2.6-10.72,6.008-15.424,10.216
		C126.5,234.664,104.004,200.536,104.004,164z M302.412,368.424l-46.408,44.496l-46.408-44.496
		c4.024-5.808,6.408-12.832,6.408-20.416c0-19.848-16.152-36-36-36h-18.76c-3.528-15.128,1.16-31.296,12.776-42.424
		c18.864-18.096,49.608-18.104,68.488,0l7.952,7.632c3.096,2.968,7.984,2.968,11.08,0l7.952-7.632
		c18.872-18.096,49.616-18.096,68.496,0c11.616,11.136,16.312,27.296,12.776,42.424h-18.76c-19.848,0-36,16.152-36,36
		C296.004,355.584,298.388,362.608,302.412,368.424z M192.004,224c0-30.88,28.712-56,64-56s64,25.12,64,56
		c0,5.968-1.12,11.784-3.208,17.368c-20.44-4.048-42.544,1.488-58.376,16.656l-2.416,2.32l-2.416-2.32
		c-15.832-15.176-37.936-20.704-58.376-16.656C193.124,235.784,192.004,229.968,192.004,224z M82.852,338.368
		c-7.568-18.28-3.584-38.32,10.408-52.312l35.672-35.68c7.488,6.784,15.872,13.024,25.144,18.576
		c-8.328,12.776-11.608,28.104-9.088,43.048h-16.984v16h52c11.032,0,20,8.976,20,20s-8.968,20-20,20h-52.808
		C107.412,368,90.42,356.648,82.852,338.368z M184.14,495.984c-0.2,0-0.4-0.032-0.608-0.032
		c-21.832-0.256-39.528-18.056-39.528-39.952c0-22.056,17.944-40,40-40s40,17.944,40,40
		C224.004,478.008,206.124,495.912,184.14,495.984z M328.468,495.952c-0.2,0-0.4,0.032-0.608,0.032
		c-21.992-0.08-39.864-17.976-39.864-39.984c0-22.056,17.944-40,40-40c22.056,0,40,17.944,40,40
		C368.004,477.896,350.3,495.696,328.468,495.952z M383.02,469.984c-0.376,0.448-0.8,0.84-1.184,1.28
		c1.384-4.856,2.168-9.968,2.168-15.264c0-30.872-25.128-56-56-56s-56,25.128-56,56c0,15.664,6.48,29.824,16.888,40h-65.776
		c10.4-10.176,16.888-24.336,16.888-40c0-30.872-25.128-56-56-56s-56,25.128-56,56c0,5.296,0.784,10.4,2.168,15.264
		c-0.384-0.44-0.808-0.824-1.184-1.28c-13.72-16.536-19.32-38.136-15.36-59.248l5.128-27.344c2.768,0.352,5.568,0.608,8.44,0.608
		h52.808c6.456,0,12.432-1.848,17.68-4.832l52.784,50.608c1.544,1.48,3.544,2.224,5.536,2.224c1.992,0,3.992-0.744,5.536-2.224
		l52.784-50.608c5.24,2.984,11.224,4.832,17.68,4.832h52.808c2.872,0,5.672-0.256,8.448-0.608l5.128,27.344
		C402.34,431.848,396.732,453.448,383.02,469.984z M429.148,338.368C421.58,356.648,404.588,368,384.804,368h-52.808
		c-11.032,0-20-8.976-20-20s8.968-20,20-20h52v-16h-16.984c2.52-14.944-0.76-30.272-9.088-43.048
		c9.264-5.552,17.656-11.784,25.144-18.576l35.672,35.68C432.732,300.048,436.716,320.088,429.148,338.368z"/>
	<ellipse style="fill:#3C4A53;" cx="255.996" cy="192" rx="16" ry="8"/>
	<circle style="fill:#3C4A53;" cx="207.996" cy="144" r="8"/>
	<circle style="fill:#3C4A53;" cx="303.996" cy="144" r="8"/>
	<rect x="247.996" y="296" style="fill:#3C4A53;" width="16" height="16"/>
	<rect x="279.996" y="296" style="fill:#3C4A53;" width="16" height="16"/>
	<rect x="215.996" y="296" style="fill:#3C4A53;" width="16" height="16"/>
</g>
<g>
</g>
<g>
</g>
<g>
</g>
<g>
</g>
<g>
</g>
<g>
</g>
<g>
</g>
<g>
</g>
<g>
</g>
<g>
</g>
<g>
</g>
<g>
</g>
<g>
</g>
<g>
</g>
<g>
</g>
</svg>
