<?xml version="1.0" encoding="iso-8859-1"?>
<!-- Generator: Adobe Illustrator 19.0.0, SVG Export Plug-In . SVG Version: 6.00 Build 0)  -->
<svg version="1.1" id="Layer_1" xmlns="http://www.w3.org/2000/svg" xmlns:xlink="http://www.w3.org/1999/xlink" x="0px" y="0px"
	 viewBox="0 0 512.002 512.002" style="enable-background:new 0 0 512.002 512.002;" xml:space="preserve">
<g>
	<circle style="fill:#FFFFFF;" cx="256.001" cy="288.002" r="24"/>
	<path style="fill:#FFFFFF;" d="M160.001,208.002c-8.824,0-16,7.176-16,16v32h32v-32
		C176.001,215.178,168.817,208.002,160.001,208.002z"/>
	<rect x="48.001" y="368.002" style="fill:#FFFFFF;" width="16" height="16"/>
	<path style="fill:#FFFFFF;" d="M48.001,344.002v8h16v-8c0-4.408-3.584-8-8-8S48.001,339.594,48.001,344.002z"/>
	<path style="fill:#FFFFFF;" d="M352.001,304.002c-8.824,0-16,7.176-16,16v32h32v-32
		C368.001,311.178,360.817,304.002,352.001,304.002z"/>
</g>
<path style="fill:#E87B5A;" d="M16.001,307.314v164.688c0,13.232,10.768,24,24,24h56V307.314l-40-40L16.001,307.314z
	 M80.001,344.002v112c0,4.416-3.576,8-8,8h-32c-4.424,0-8-3.584-8-8v-112c0-13.232,10.768-24,24-24S80.001,330.77,80.001,344.002z"
	/>
<g>
	<path style="fill:#FFFFFF;" d="M160.001,400.002c-8.824,0-16,7.176-16,16v32h32v-32
		C176.001,407.178,168.817,400.002,160.001,400.002z"/>
	<path style="fill:#FFFFFF;" d="M256.001,368.002c-17.648,0-32,14.352-32,32v96h64v-96
		C288.001,382.354,273.649,368.002,256.001,368.002z"/>
	<path style="fill:#FFFFFF;" d="M352.001,400.002c-8.824,0-16,7.176-16,16v32h32v-32
		C368.001,407.178,360.817,400.002,352.001,400.002z"/>
	<path style="fill:#FFFFFF;" d="M448.001,344.002v8h16v-8c0-4.408-3.584-8-8-8S448.001,339.594,448.001,344.002z"/>
	<rect x="448.001" y="368.002" style="fill:#FFFFFF;" width="16" height="16"/>
	<rect x="448.001" y="400.002" style="fill:#FFFFFF;" width="16" height="16"/>
</g>
<path style="fill:#E87B5A;" d="M416.001,307.314v188.688h56c13.232,0,24-10.768,24-24V307.314l-40-40L416.001,307.314z
	 M480.001,344.002v112c0,4.416-3.576,8-8,8h-32c-4.424,0-8-3.584-8-8v-112c0-13.232,10.768-24,24-24S480.001,330.77,480.001,344.002
	z"/>
<path style="fill:#EEC97B;" d="M208.001,120.002v16h32c4.424,0,8,3.584,8,8v72h16v-72c0-4.416,3.576-8,8-8h32v-16h-32
	c-4.424,0-8-3.584-8-8v-32h-16v32c0,4.416-3.576,8-8,8H208.001z"/>
<g>
	<path style="fill:#FFFFFF;" d="M368.001,224.002c0-8.824-7.184-16-16-16c-8.824,0-16,7.176-16,16v32h32V224.002z"/>
	<rect x="448.001" y="432.002" style="fill:#FFFFFF;" width="16" height="16"/>
</g>
<path style="fill:#E87B5A;" d="M112.001,163.314v140.688v192h96v-96c0-26.472,21.528-48,48-48s48,21.528,48,48v96h96v-192V163.314
	l-144-144L112.001,163.314z M192.001,456.002c0,4.416-3.576,8-8,8h-48c-4.424,0-8-3.584-8-8v-40c0-17.648,14.352-32,32-32
	s32,14.352,32,32V456.002z M192.001,360.002c0,4.416-3.576,8-8,8h-48c-4.424,0-8-3.584-8-8v-40c0-17.648,14.352-32,32-32
	s32,14.352,32,32V360.002z M192.001,264.002c0,4.416-3.576,8-8,8h-48c-4.424,0-8-3.584-8-8v-40c0-17.648,14.352-32,32-32
	s32,14.352,32,32V264.002z M256.001,328.002c-22.056,0-40-17.944-40-40s17.944-40,40-40s40,17.944,40,40
	S278.057,328.002,256.001,328.002z M384.001,456.002c0,4.416-3.576,8-8,8h-48c-4.424,0-8-3.584-8-8v-40c0-17.648,14.352-32,32-32
	s32,14.352,32,32V456.002z M384.001,360.002c0,4.416-3.576,8-8,8h-48c-4.424,0-8-3.584-8-8v-40c0-17.648,14.352-32,32-32
	s32,14.352,32,32V360.002z M352.001,192.002c17.648,0,32,14.352,32,32v40c0,4.416-3.576,8-8,8h-48c-4.424,0-8-3.584-8-8v-40
	C320.001,206.354,334.353,192.002,352.001,192.002z M280.001,72.002v32h32c4.424,0,8,3.584,8,8v32c0,4.416-3.576,8-8,8h-32v72
	c0,4.416-3.576,8-8,8h-32c-4.424,0-8-3.584-8-8v-72h-32c-4.424,0-8-3.584-8-8v-32c0-4.416,3.576-8,8-8h32v-32c0-4.416,3.576-8,8-8
	h32C276.425,64.002,280.001,67.586,280.001,72.002z"/>
<g>
	<rect x="48.001" y="400.002" style="fill:#FFFFFF;" width="16" height="16"/>
	<rect x="48.001" y="432.002" style="fill:#FFFFFF;" width="16" height="16"/>
	<path style="fill:#FFFFFF;" d="M160.001,304.002c-8.824,0-16,7.176-16,16v32h32v-32
		C176.001,311.178,168.817,304.002,160.001,304.002z"/>
</g>
<g>
	<path style="fill:#3C4A53;" d="M232.001,72.002v32h-32c-4.424,0-8,3.584-8,8v32c0,4.416,3.576,8,8,8h32v72c0,4.416,3.576,8,8,8h32
		c4.424,0,8-3.584,8-8v-72h32c4.424,0,8-3.584,8-8v-32c0-4.416-3.576-8-8-8h-32v-32c0-4.416-3.576-8-8-8h-32
		C235.577,64.002,232.001,67.586,232.001,72.002z M248.001,112.002v-32h16v32c0,4.416,3.576,8,8,8h32v16h-32c-4.424,0-8,3.584-8,8
		v72h-16v-72c0-4.416-3.576-8-8-8h-32v-16h32C244.425,120.002,248.001,116.418,248.001,112.002z"/>
	<path style="fill:#3C4A53;" d="M509.657,298.346l-45.656-45.656v-52.688h-16v52.688l-32,32V160.002c0-2.12-0.848-4.16-2.344-5.656
		l-152-152c-3.128-3.128-8.184-3.128-11.312,0l-152,152c-1.504,1.504-2.344,3.536-2.344,5.656V284.69l-32-32v-52.688h-16v52.688
		L2.345,298.346c-1.504,1.504-2.344,3.536-2.344,5.656v168c0,22.056,17.944,40,40,40h64h112h80h112h64c22.056,0,40-17.944,40-40
		v-168C512.001,301.882,511.153,299.85,509.657,298.346z M96.001,496.002h-56c-13.232,0-24-10.768-24-24V307.314l40-40l40,40
		V496.002z M288.001,496.002h-64v-96c0-17.648,14.352-32,32-32s32,14.352,32,32V496.002z M400.001,304.002v192h-96v-96
		c0-26.472-21.528-48-48-48s-48,21.528-48,48v96h-96v-192V163.314l144-144l144,144V304.002z M496.001,472.002
		c0,13.232-10.768,24-24,24h-56V307.314l40-40l40,40V472.002z"/>
	<path style="fill:#3C4A53;" d="M256.001,248.002c-22.056,0-40,17.944-40,40s17.944,40,40,40s40-17.944,40-40
		S278.057,248.002,256.001,248.002z M256.001,312.002c-13.232,0-24-10.768-24-24s10.768-24,24-24s24,10.768,24,24
		S269.233,312.002,256.001,312.002z"/>
	<path style="fill:#3C4A53;" d="M432.001,344.002v112c0,4.416,3.576,8,8,8h32c4.424,0,8-3.584,8-8v-112c0-13.232-10.768-24-24-24
		S432.001,330.77,432.001,344.002z M464.001,448.002h-16v-16h16V448.002z M464.001,416.002h-16v-16h16V416.002z M464.001,384.002
		h-16v-16h16V384.002z M464.001,344.002v8h-16v-8c0-4.408,3.584-8,8-8S464.001,339.594,464.001,344.002z"/>
	<path style="fill:#3C4A53;" d="M32.001,344.002v112c0,4.416,3.576,8,8,8h32c4.424,0,8-3.584,8-8v-112c0-13.232-10.768-24-24-24
		S32.001,330.77,32.001,344.002z M64.001,448.002h-16v-16h16V448.002z M64.001,416.002h-16v-16h16V416.002z M64.001,384.002h-16v-16
		h16V384.002z M64.001,344.002v8h-16v-8c0-4.408,3.584-8,8-8S64.001,339.594,64.001,344.002z"/>
	<path style="fill:#3C4A53;" d="M160.001,192.002c-17.648,0-32,14.352-32,32v40c0,4.416,3.576,8,8,8h48c4.424,0,8-3.584,8-8v-40
		C192.001,206.354,177.649,192.002,160.001,192.002z M176.001,256.002h-32v-32c0-8.824,7.176-16,16-16c8.816,0,16,7.176,16,16
		V256.002z"/>
	<path style="fill:#3C4A53;" d="M320.001,264.002c0,4.416,3.576,8,8,8h48c4.424,0,8-3.584,8-8v-40c0-17.648-14.352-32-32-32
		s-32,14.352-32,32V264.002z M336.001,224.002c0-8.824,7.176-16,16-16c8.816,0,16,7.176,16,16v32h-32V224.002z"/>
	<path style="fill:#3C4A53;" d="M160.001,288.002c-17.648,0-32,14.352-32,32v40c0,4.416,3.576,8,8,8h48c4.424,0,8-3.584,8-8v-40
		C192.001,302.354,177.649,288.002,160.001,288.002z M176.001,352.002h-32v-32c0-8.824,7.176-16,16-16c8.816,0,16,7.176,16,16
		V352.002z"/>
	<path style="fill:#3C4A53;" d="M352.001,288.002c-17.648,0-32,14.352-32,32v40c0,4.416,3.576,8,8,8h48c4.424,0,8-3.584,8-8v-40
		C384.001,302.354,369.649,288.002,352.001,288.002z M368.001,352.002h-32v-32c0-8.824,7.176-16,16-16c8.816,0,16,7.176,16,16
		V352.002z"/>
	<path style="fill:#3C4A53;" d="M160.001,384.002c-17.648,0-32,14.352-32,32v40c0,4.416,3.576,8,8,8h48c4.424,0,8-3.584,8-8v-40
		C192.001,398.354,177.649,384.002,160.001,384.002z M176.001,448.002h-32v-32c0-8.824,7.176-16,16-16c8.816,0,16,7.176,16,16
		V448.002z"/>
	<path style="fill:#3C4A53;" d="M352.001,384.002c-17.648,0-32,14.352-32,32v40c0,4.416,3.576,8,8,8h48c4.424,0,8-3.584,8-8v-40
		C384.001,398.354,369.649,384.002,352.001,384.002z M368.001,448.002h-32v-32c0-8.824,7.176-16,16-16c8.816,0,16,7.176,16,16
		V448.002z"/>
</g>
<g>
</g>
<g>
</g>
<g>
</g>
<g>
</g>
<g>
</g>
<g>
</g>
<g>
</g>
<g>
</g>
<g>
</g>
<g>
</g>
<g>
</g>
<g>
</g>
<g>
</g>
<g>
</g>
<g>
</g>
</svg>
