<?xml version="1.0" encoding="iso-8859-1"?>
<!-- Generator: Adobe Illustrator 19.0.0, SVG Export Plug-In . SVG Version: 6.00 Build 0)  -->
<svg version="1.1" id="Layer_1" xmlns="http://www.w3.org/2000/svg" xmlns:xlink="http://www.w3.org/1999/xlink" x="0px" y="0px"
	 viewBox="0 0 512 512" style="enable-background:new 0 0 512 512;" xml:space="preserve">
<circle style="fill:#9FC7D1;" cx="256" cy="32" r="16"/>
<g>
	<path style="fill:#EEC97B;" d="M240,368c0-8.824-7.184-16-16-16h-16v32h16C232.816,384,240,376.824,240,368z"/>
	<path style="fill:#EEC97B;" d="M480,352h-16v80h16c8.816,0,16-7.176,16-16v-48C496,359.176,488.816,352,480,352z"/>
	<polygon style="fill:#EEC97B;" points="131.096,408 156.904,408 144,369.296 	"/>
	<path style="fill:#EEC97B;" d="M496,320V200c0-13.232-10.768-24-24-24H40c-13.232,0-24,10.768-24,24v120H8v16.12
		c3.208,0,6.128,1.776,7.384,4.8L48,419.2l32.616-78.28c1.464-3.512,5.16-5.504,8.952-4.768C93.304,336.904,96,340.184,96,344v96
		c0,4.416-3.576,8-8,8c-4.424,0-8-3.584-8-8v-56l-24.616,59.08c-1.24,2.976-4.16,4.92-7.384,4.92s-6.144-1.944-7.384-4.92L16,384v56
		c0,4.416-3.576,8-8,8v16h8v8c0,13.232,10.768,24,24,24h432c13.232,0,24-10.768,24-24v-8h8v-27.056
		c-5.872,6.72-14.4,11.056-24,11.056h-24c-4.424,0-8-3.584-8-8v-96c0-4.416,3.576-8,8-8h24c9.6,0,18.128,4.336,24,11.056V320H496z
		 M464,464h16v16h-16V464z M112,280c0-4.416,3.576-8,8-8c4.424,0,8,3.584,8,8v8c0,8.824,7.176,16,16,16c8.816,0,16-7.176,16-16v-64
		h-16c-4.424,0-8-3.584-8-8s3.576-8,8-8h24c4.424,0,8,3.584,8,8v72c0,17.648-14.352,32-32,32s-32-14.352-32-32V280z
		 M178.528,447.592c-0.84,0.28-1.696,0.408-2.528,0.408c-3.352,0-6.472-2.12-7.584-5.472L162.232,424H125.76l-6.176,18.528
		c-1.4,4.184-5.888,6.472-10.12,5.056c-4.184-1.4-6.456-5.928-5.056-10.12l32-96C137.496,338.2,140.552,336,144,336
		s6.496,2.2,7.584,5.472l32,96C184.984,441.664,182.72,446.192,178.528,447.592z M184,216c0-4.416,3.576-8,8-8s8,3.584,8,8v72
		c0,8.824,7.176,16,16,16c8.816,0,16-7.176,16-16v-72c0-4.416,3.576-8,8-8s8,3.584,8,8v72c0,17.648-14.352,32-32,32
		s-32-14.352-32-32V216z M261.128,446.144c-1.504,1.248-3.312,1.856-5.12,1.856c-2.296,0-4.568-0.984-6.16-2.88l-37.6-45.12H208v40
		c0,4.416-3.576,8-8,8s-8-3.584-8-8v-96c0-4.416,3.576-8,8-8h24c17.648,0,32,14.352,32,32c0,14.824-10.184,27.216-23.896,30.832
		l30.04,36.048C264.976,438.272,264.512,443.32,261.128,446.144z M256,288c0-4.416,3.576-8,8-8s8,3.584,8,8c0,8.824,7.176,16,16,16
		c8.816,0,16-7.176,16-16s-7.184-16-16-16c-17.648,0-32-14.352-32-32s14.352-32,32-32s32,14.352,32,32c0,4.416-3.576,8-8,8
		s-8-3.584-8-8c0-8.824-7.184-16-16-16c-8.824,0-16,7.176-16,16s7.176,16,16,16c17.648,0,32,14.352,32,32s-14.352,32-32,32
		S256,305.648,256,288z M341.128,446.144c-1.504,1.248-3.312,1.856-5.12,1.856c-2.296,0-4.568-0.984-6.16-2.88l-37.6-45.12H288v40
		c0,4.416-3.576,8-8,8s-8-3.584-8-8v-96c0-4.416,3.576-8,8-8h24c17.648,0,32,14.352,32,32c0,14.824-10.184,27.216-23.896,30.832
		l30.04,36.048C344.976,438.272,344.512,443.32,341.128,446.144z M368,440c0,4.416-3.576,8-8,8s-8-3.584-8-8v-96
		c0-4.416,3.576-8,8-8s8,3.584,8,8V440z M368,312c0,4.416-3.576,8-8,8s-8-3.584-8-8v-88h-24c-4.424,0-8-3.584-8-8s3.576-8,8-8h64
		c4.424,0,8,3.584,8,8s-3.576,8-8,8h-24V312z M376,440v-96c0-4.416,3.576-8,8-8h48c4.424,0,8,3.584,8,8s-3.576,8-8,8h-40v32h40
		c4.424,0,8,3.584,8,8s-3.576,8-8,8h-40v32h40c4.424,0,8,3.584,8,8s-3.576,8-8,8h-48C379.576,448,376,444.416,376,440z M416,480h-16
		v-16h16V480z M448,480h-16v-16h16V480z"/>
	<path style="fill:#EEC97B;" d="M320,368c0-8.824-7.184-16-16-16h-16v32h16C312.816,384,320,376.824,320,368z"/>
</g>
<g>
	<path style="fill:#3C4A53;" d="M151.584,341.472C150.496,338.2,147.448,336,144,336s-6.504,2.2-7.584,5.472l-32,96
		c-1.4,4.192,0.864,8.72,5.056,10.12c4.224,1.416,8.72-0.872,10.12-5.056L125.76,424h36.472l6.176,18.528
		c1.12,3.352,4.24,5.472,7.592,5.472c0.832,0,1.688-0.136,2.528-0.416c4.184-1.4,6.456-5.928,5.056-10.12L151.584,341.472z
		 M131.096,408L144,369.296L156.904,408H131.096z"/>
	<path style="fill:#3C4A53;" d="M480,336h-24c-4.424,0-8,3.584-8,8v96c0,4.416,3.576,8,8,8h24c9.6,0,18.128-4.336,24-11.056
		c4.92-5.632,8-12.896,8-20.944v-48c0-8.04-3.08-15.312-8-20.944C498.128,340.336,489.6,336,480,336z M496,416
		c0,8.824-7.184,16-16,16h-16v-80h16c8.816,0,16,7.176,16,16V416z"/>
	<path style="fill:#3C4A53;" d="M440,440c0-4.416-3.576-8-8-8h-40v-32h40c4.424,0,8-3.584,8-8s-3.576-8-8-8h-40v-32h40
		c4.424,0,8-3.584,8-8s-3.576-8-8-8h-48c-4.424,0-8,3.584-8,8v96c0,4.416,3.576,8,8,8h48C436.424,448,440,444.416,440,440z"/>
	<path style="fill:#3C4A53;" d="M360,336c-4.424,0-8,3.584-8,8v96c0,4.416,3.576,8,8,8s8-3.584,8-8v-96
		C368,339.584,364.424,336,360,336z"/>
	<path style="fill:#3C4A53;" d="M144,320c17.648,0,32-14.352,32-32v-72c0-4.416-3.576-8-8-8h-24c-4.424,0-8,3.584-8,8s3.576,8,8,8
		h16v64c0,8.824-7.184,16-16,16c-8.824,0-16-7.176-16-16v-8c0-4.416-3.576-8-8-8c-4.424,0-8,3.584-8,8v8
		C112,305.648,126.352,320,144,320z"/>
	<path style="fill:#3C4A53;" d="M16,440v-56l24.616,59.08c1.24,2.976,4.16,4.92,7.384,4.92s6.144-1.944,7.384-4.92L80,384v56
		c0,4.416,3.576,8,8,8c4.424,0,8-3.584,8-8v-96c0-3.816-2.696-7.096-6.432-7.84c-3.8-0.744-7.488,1.248-8.952,4.768L48,419.2
		l-32.616-78.28c-1.256-3.024-4.168-4.8-7.384-4.8c-0.52,0-1.04-0.072-1.568,0.032C2.696,336.904,0,340.184,0,344v96
		c0,4.416,3.576,8,8,8S16,444.416,16,440z"/>
	<path style="fill:#3C4A53;" d="M232.104,398.832C245.816,395.216,256,382.824,256,368c0-17.648-14.352-32-32-32h-24
		c-4.424,0-8,3.584-8,8v96c0,4.416,3.576,8,8,8s8-3.584,8-8v-40h4.248l37.6,45.12c1.584,1.896,3.864,2.88,6.16,2.88
		c1.808,0,3.616-0.608,5.12-1.856c3.392-2.832,3.856-7.872,1.024-11.264L232.104,398.832z M208,384v-32h16c8.816,0,16,7.176,16,16
		s-7.184,16-16,16H208z"/>
	<path style="fill:#3C4A53;" d="M312.104,398.832C325.816,395.216,336,382.824,336,368c0-17.648-14.352-32-32-32h-24
		c-4.424,0-8,3.584-8,8v96c0,4.416,3.576,8,8,8s8-3.584,8-8v-40h4.248l37.6,45.12c1.584,1.896,3.864,2.88,6.16,2.88
		c1.808,0,3.616-0.608,5.12-1.856c3.392-2.832,3.856-7.872,1.024-11.264L312.104,398.832z M288,384v-32h16c8.816,0,16,7.176,16,16
		s-7.184,16-16,16H288z"/>
	<path style="fill:#3C4A53;" d="M320,288c0-17.648-14.352-32-32-32c-8.824,0-16-7.176-16-16s7.176-16,16-16c8.816,0,16,7.176,16,16
		c0,4.416,3.576,8,8,8s8-3.584,8-8c0-17.648-14.352-32-32-32s-32,14.352-32,32s14.352,32,32,32c8.816,0,16,7.176,16,16
		s-7.184,16-16,16c-8.824,0-16-7.176-16-16c0-4.416-3.576-8-8-8s-8,3.584-8,8c0,17.648,14.352,32,32,32S320,305.648,320,288z"/>
	<path style="fill:#3C4A53;" d="M400,216c0-4.416-3.576-8-8-8h-64c-4.424,0-8,3.584-8,8s3.576,8,8,8h24v88c0,4.416,3.576,8,8,8
		s8-3.584,8-8v-88h24C396.424,224,400,220.416,400,216z"/>
	<path style="fill:#3C4A53;" d="M216,320c17.648,0,32-14.352,32-32v-72c0-4.416-3.576-8-8-8s-8,3.584-8,8v72c0,8.824-7.184,16-16,16
		c-8.824,0-16-7.176-16-16v-72c0-4.416-3.576-8-8-8s-8,3.584-8,8v72C184,305.648,198.352,320,216,320z"/>
	<path style="fill:#3C4A53;" d="M16,200c0-13.232,10.768-24,24-24h432c13.232,0,24,10.768,24,24v120h8h8V200
		c0-22.056-17.944-40-40-40h-45.576L274.032,58.408C282.456,52.632,288,42.96,288,32c0-17.648-14.352-32-32-32s-32,14.352-32,32
		c0,10.96,5.544,20.632,13.968,26.408L85.576,160H40c-22.056,0-40,17.944-40,40v120h8h8V200z M256,16c8.816,0,16,7.176,16,16
		s-7.184,16-16,16c-8.824,0-16-7.176-16-16S247.176,16,256,16z M256,65.616L397.576,160H114.424L256,65.616z"/>
	<path style="fill:#3C4A53;" d="M496,472c0,13.232-10.768,24-24,24H40c-13.232,0-24-10.768-24-24v-8H8H0v8c0,22.056,17.944,40,40,40
		h432c22.056,0,40-17.944,40-40v-8h-8h-8V472z"/>
	<rect x="464" y="464" style="fill:#3C4A53;" width="16" height="16"/>
	<rect x="432" y="464" style="fill:#3C4A53;" width="16" height="16"/>
	<rect x="400" y="464" style="fill:#3C4A53;" width="16" height="16"/>
</g>
<g>
</g>
<g>
</g>
<g>
</g>
<g>
</g>
<g>
</g>
<g>
</g>
<g>
</g>
<g>
</g>
<g>
</g>
<g>
</g>
<g>
</g>
<g>
</g>
<g>
</g>
<g>
</g>
<g>
</g>
</svg>
