<?xml version="1.0" encoding="iso-8859-1"?>
<!-- Generator: Adobe Illustrator 19.0.0, SVG Export Plug-In . SVG Version: 6.00 Build 0)  -->
<svg version="1.1" id="Layer_1" xmlns="http://www.w3.org/2000/svg" xmlns:xlink="http://www.w3.org/1999/xlink" x="0px" y="0px"
	 viewBox="0 0 512 512" style="enable-background:new 0 0 512 512;" xml:space="preserve">
<path style="fill:#E87B5A;" d="M456,184c0-4.416-3.584-8-8-8h-48c-4.416,0-8,3.584-8,8v8h64V184z"/>
<path style="fill:#EEC97B;" d="M72,116.016C82.096,97.456,97.456,82.096,116.016,72C97.456,61.904,82.096,46.544,72,27.984
	C61.904,46.544,46.544,61.904,27.984,72C46.544,82.096,61.904,97.456,72,116.016z"/>
<path style="fill:#E87B5A;" d="M271.992,321.792l-11.28,7.52c-2.688,1.8-6.184,1.8-8.872,0l-11.272-7.52
	c-1.8-1.192-3.848-1.784-5.896-1.784c-2.76,0-5.496,1.064-7.544,3.12c-4.144,4.152-4.144,10.904,0,15.056l29.16,29.16l29.16-29.16
	c4.152-4.152,4.152-10.904,0-15.064C281.84,319.536,276.192,318.984,271.992,321.792z"/>
<g>
	<path style="fill:#9FC7D1;" d="M256,256c-48.52,0-88,39.48-88,88s39.48,88,88,88s88-39.48,88-88S304.52,256,256,256z
		 M296.744,349.496l-34.816,34.816c-1.56,1.56-3.608,2.344-5.656,2.344s-4.096-0.784-5.656-2.344l-34.808-34.816
		c-10.384-10.384-10.392-27.288,0-37.688c8.96-8.944,23.104-10.344,33.632-3.328l6.832,4.552l6.84-4.552
		c10.536-7.024,24.664-5.608,33.624,3.32C307.136,322.2,307.128,339.112,296.744,349.496z"/>
	<path style="fill:#9FC7D1;" d="M96,240c0-17.648-14.352-32-32-32H40c-13.232,0-24,10.768-24,24v40h48C81.648,272,96,257.648,96,240
		z M40,240c0-8.824,7.176-16,16-16c8.816,0,16,7.176,16,16s-7.184,16-16,16C47.176,256,40,248.824,40,240z"/>
</g>
<g>
	<path style="fill:#FFFFFF;" d="M432,344c0-5.912-3.216-11.088-8-13.848v27.704C428.784,355.088,432,349.912,432,344z"/>
	<path style="fill:#FFFFFF;" d="M256,224c-66.176,0-120,53.832-120,120s53.824,120,120,120c66.168,0,120-53.832,120-120
		S322.168,224,256,224z M256,448c-57.344,0-104-46.656-104-104s46.656-104,104-104s104,46.656,104,104S313.344,448,256,448z"/>
	<path style="fill:#FFFFFF;" d="M456,432h-32c-4.416,0-8,3.584-8,8v16c0,4.416,3.584,8,8,8h32c4.416,0,8-3.584,8-8v-16
		C464,435.584,460.416,432,456,432z"/>
</g>
<path style="fill:#9FC7D1;" d="M472,208h-8h-80h-24c-3.672,0-6.864-2.496-7.76-6.064l-9.936-39.76
	C339.624,151.48,330.048,144,319.016,144H192.984c-11.032,0-20.608,7.48-23.288,18.176l-9.936,39.76
	c-0.896,3.568-4.088,6.064-7.76,6.064H99.672c7.64,8.504,12.328,19.696,12.328,32c0,26.472-21.528,48-48,48H16v176h48
	c13.232,0,24-10.768,24-24V304c0-2.128,0.84-4.16,2.344-5.656l8-8l11.312,11.312L104,307.312V440c0,22.056-17.944,40-40,40H17.472
	c3.312,9.288,12.112,16,22.528,16h432c13.232,0,24-10.768,24-24V232C496,218.768,485.232,208,472,208z M408,320c0-4.424,3.576-8,8-8
	c17.648,0,32,14.352,32,32s-14.352,32-32,32c-4.424,0-8-3.576-8-8V320z M280,160h16v16h-16V160z M248,160h16v16h-16V160z M216,160
	h16v16h-16V160z M256,480c-74.992,0-136-61.008-136-136s61.008-136,136-136s136,61.008,136,136S330.992,480,256,480z M480,456
	c0,13.232-10.768,24-24,24h-32c-13.232,0-24-10.768-24-24v-16c0-13.232,10.768-24,24-24h32c13.232,0,24,10.768,24,24V456z M480,264
	h-56v-16h56V264z"/>
<g>
	<path style="fill:#3C4A53;" d="M472,192v-8c0-13.232-10.768-24-24-24h-48c-13.232,0-24,10.768-24,24v8h-9.752l-8.432-33.696
		c-4.456-17.84-20.408-30.304-38.8-30.304H192.984c-18.392,0-34.344,12.464-38.808,30.304L145.752,192H64H40
		c-22.056,0-40,17.944-40,40v48v192c0,22.056,17.944,40,40,40h432c22.056,0,40-17.944,40-40V232C512,209.944,494.056,192,472,192z
		 M392,184c0-4.416,3.584-8,8-8h48c4.416,0,8,3.584,8,8v8h-64V184z M16,232c0-13.232,10.768-24,24-24h24c17.648,0,32,14.352,32,32
		s-14.352,32-32,32H16V232z M496,472c0,13.232-10.768,24-24,24H40c-10.416,0-19.216-6.712-22.528-16H64c22.056,0,40-17.944,40-40
		V307.312l5.656-5.656l-11.312-11.312l-8,8C88.84,299.84,88,301.872,88,304v136c0,13.232-10.768,24-24,24H16V288h48
		c26.472,0,48-21.528,48-48c0-12.304-4.688-23.496-12.328-32H152c3.672,0,6.864-2.496,7.76-6.064l9.936-39.76
		C172.376,151.48,181.952,144,192.984,144h126.032c11.032,0,20.608,7.48,23.288,18.176l9.936,39.76
		c0.896,3.568,4.088,6.064,7.76,6.064h24h80h8c13.232,0,24,10.768,24,24V472z"/>
	<path style="fill:#3C4A53;" d="M256,208c-74.992,0-136,61.008-136,136s61.008,136,136,136s136-61.008,136-136S330.992,208,256,208z
		 M256,464c-66.176,0-120-53.832-120-120s53.824-120,120-120c66.168,0,120,53.832,120,120S322.168,464,256,464z"/>
	<path style="fill:#3C4A53;" d="M256,240c-57.344,0-104,46.656-104,104s46.656,104,104,104s104-46.656,104-104S313.344,240,256,240z
		 M256,432c-48.52,0-88-39.48-88-88s39.48-88,88-88s88,39.48,88,88S304.52,432,256,432z"/>
	<path style="fill:#3C4A53;" d="M263.12,308.48l-6.84,4.552l-6.84-4.552c-10.528-7.016-24.672-5.616-33.632,3.328
		c-10.392,10.4-10.384,27.304,0,37.688l34.808,34.816c1.56,1.56,3.608,2.344,5.656,2.344s4.096-0.784,5.656-2.344l34.816-34.816
		c10.384-10.384,10.392-27.288,0-37.696C287.784,302.864,273.656,301.456,263.12,308.48z M285.432,338.176l-29.16,29.16
		l-29.16-29.16c-4.144-4.152-4.144-10.904,0-15.056c2.056-2.056,4.792-3.12,7.544-3.12c2.048,0,4.104,0.584,5.896,1.784l11.272,7.52
		c2.688,1.8,6.184,1.8,8.872,0l11.28-7.52c4.2-2.808,9.848-2.248,13.44,1.328C289.576,327.272,289.576,334.032,285.432,338.176z"/>
	<circle style="fill:#3C4A53;" cx="56" cy="240" r="16"/>
	<rect x="248" y="160" style="fill:#3C4A53;" width="16" height="16"/>
	<rect x="280" y="160" style="fill:#3C4A53;" width="16" height="16"/>
	<rect x="216" y="160" style="fill:#3C4A53;" width="16" height="16"/>
	<path style="fill:#3C4A53;" d="M416,376c17.648,0,32-14.352,32-32s-14.352-32-32-32c-4.424,0-8,3.576-8,8v48
		C408,372.424,411.576,376,416,376z M424,330.152c4.784,2.768,8,7.936,8,13.848s-3.216,11.088-8,13.848V330.152z"/>
	<path style="fill:#3C4A53;" d="M5.472,79.584c27.68,9.224,49.72,31.264,58.944,58.944C65.496,141.8,68.552,144,72,144
		s6.496-2.2,7.584-5.472c9.224-27.68,31.264-49.72,58.944-58.944C141.8,78.496,144,75.448,144,72s-2.2-6.496-5.472-7.584
		c-27.68-9.224-49.72-31.264-58.944-58.944C78.496,2.2,75.448,0,72,0s-6.504,2.2-7.584,5.472
		c-9.224,27.68-31.264,49.72-58.944,58.944C2.2,65.504,0,68.552,0,72S2.2,78.496,5.472,79.584z M72,27.984
		C82.096,46.544,97.456,61.904,116.016,72C97.456,82.096,82.096,97.456,72,116.016C61.904,97.456,46.544,82.096,27.984,72
		C46.544,61.904,61.904,46.544,72,27.984z"/>
	<path style="fill:#3C4A53;" d="M456,416h-32c-13.232,0-24,10.768-24,24v16c0,13.232,10.768,24,24,24h32c13.232,0,24-10.768,24-24
		v-16C480,426.768,469.232,416,456,416z M464,456c0,4.416-3.584,8-8,8h-32c-4.416,0-8-3.584-8-8v-16c0-4.416,3.584-8,8-8h32
		c4.416,0,8,3.584,8,8V456z"/>
	<rect x="424" y="248" style="fill:#3C4A53;" width="56" height="16"/>
</g>
<g>
</g>
<g>
</g>
<g>
</g>
<g>
</g>
<g>
</g>
<g>
</g>
<g>
</g>
<g>
</g>
<g>
</g>
<g>
</g>
<g>
</g>
<g>
</g>
<g>
</g>
<g>
</g>
<g>
</g>
</svg>
